<?xml version="1.0" encoding="UTF-8" standalone="no"?>
<!-- Created with Inkscape (http://www.inkscape.org/) -->

<svg
   width="49.88858"
   height="56.373428"
   viewBox="0 0 49.88858 56.373428"
   version="1.1"
   id="svg1"
   xml:space="preserve"
   xmlns:inkscape="http://www.inkscape.org/namespaces/inkscape"
   xmlns:sodipodi="http://sodipodi.sourceforge.net/DTD/sodipodi-0.dtd"
   xmlns="http://www.w3.org/2000/svg"
   xmlns:svg="http://www.w3.org/2000/svg"><sodipodi:namedview
     id="namedview1"
     pagecolor="#ffffff"
     bordercolor="#000000"
     borderopacity="0.25"
     inkscape:showpageshadow="2"
     inkscape:pageopacity="0.0"
     inkscape:pagecheckerboard="0"
     inkscape:deskcolor="#d1d1d1"
     inkscape:document-units="px"><inkscape:page
       x="0"
       y="0"
       width="49.88858"
       height="56.373428"
       id="page2"
       margin="0"
       bleed="0" /></sodipodi:namedview><defs
     id="defs1"><style
       id="style1">.a{fill:none;}.b{clip-path:url(#a);}.c{fill:#37474f;}.d{fill:#2979ff;}.e{fill:#ff9100;}</style></defs><g
     inkscape:label="Camada 1"
     inkscape:groupmode="layer"
     id="layer1"
     transform="translate(-161.79794,-142.43027)"><g
       id="g1"
       inkscape:label="ícone ceos"
       style="fill:#3d8d7a;fill-opacity:1"><path
         class="d"
         d="M 34.648,8.88 C 31.948,7.48 28.32,5.399 24.985,3.563 L 5.34,14.992 25.012,26.417 c 3.67,-2.172 7.266,-4.3 10.86,-6.427 q 5.113,-3.028 10.225,-6.058 a 6.744,6.744 0 0 1 1.319,-0.668 1.715,1.715 0 0 1 2.343,1.388 9.258,9.258 0 0 1 0.072,1.646 c 0.013,7.982 -0.011,15.963 0.056,23.944 a 3.44,3.44 0 0 1 -2.064,3.251 q -9.143,5.293 -18.254,10.64 c -0.951,0.555 -1.927,1.069 -2.848,1.67 a 3.048,3.048 0 0 1 -3.54,0.016 C 18.017,52.77 12.822,49.773 7.637,46.758 5.737,45.652 3.854,44.503 1.917,43.458 A 3.182,3.182 0 0 1 0.025,40.3 C 0.086,37.5 -0.005,34.687 0,31.88 c 0,-0.578 0,0.247 0,-1.622 2.2,-0.026 3.506,0.869 3.523,2.784 0.022,2.416 0.005,4.831 0.005,7.285 L 24.971,52.76 46.251,40.4 V 17.935 c -1.749,1.007 -3.313,1.88 -4.851,2.8 -4.819,2.876 -9.646,5.739 -14.428,8.675 a 3.314,3.314 0 0 1 -3.825,0.061 C 16.247,25.364 9.309,21.311 2.387,17.237 2.198,17.125 2.018,16.996 1.836,16.873 c -1.855,-1.26 -1.9,-2.653 0.027,-3.82 4.144,-2.5 8.349,-4.905 12.532,-7.342 2.948,-1.717 5.917,-3.4 8.845,-5.145 a 3.038,3.038 0 0 1 3.27,-0.16 q 5.044,2.815 10.075,5.654 c 0.331,0.187 2.075,1.18 2.306,1.326 -0.5,1.474 -3.041,2.119 -4.243,1.494"
         id="path5"
         transform="translate(161.79814,142.42607)"
         style="fill:#3d8d7a;fill-opacity:1" /><path
         class="e"
         d="m 75.837,170.812 -0.077,-4.18 9.363,5.178 0.077,4.18 z"
         transform="translate(99.96314,6.42107)"
         id="path6"
         style="fill:#a3d1c6;fill-opacity:1" /><path
         class="e"
         d="m 90.846,218.743 -0.077,-4.18 6.471,3.709 0.077,4.18 z"
         transform="translate(87.71214,-32.69993)"
         id="path7"
         style="fill:#a3d1c6;fill-opacity:1" /></g></g></svg>
