<svg width="373" height="52" viewBox="0 0 373 52" fill="none" xmlns="http://www.w3.org/2000/svg">
<path d="M14.9256 8.37484C11.9412 10.1768 9.45389 12.7235 7.69703 15.7761C5.92871 18.887 4.99735 22.4201 4.99735 26.0172C4.99735 29.6143 5.92871 33.1475 7.69703 36.2584C9.45948 39.2984 11.9461 41.8338 14.9256 43.6287C17.96 45.4708 21.4324 46.4245 24.9622 46.3851H49.9928V51.4918H24.9622C20.5513 51.541 16.2129 50.3438 12.4266 48.0323C8.70594 45.7742 5.5983 42.6003 3.3873 38.8004C1.16892 34.9171 0 30.5018 0 26.0059C0 21.51 1.16892 17.0947 3.3873 13.2114C5.59439 9.40348 8.70256 6.22267 12.4266 3.96089C16.2129 1.64944 20.5513 0.452193 24.9622 0.501478H49.9928V5.60813H24.9622C21.4314 5.57187 17.959 6.52908 14.9256 8.37484Z" fill="#A3D1C6"/>
<path d="M106.839 0.50766V5.61431H61.9107V23.5237H83.7217V28.6303H56.9106V0.50766H106.839ZM61.9107 46.3933H106.839V51.5H56.9106V35.9203H61.9107V46.3933Z" fill="#A3D1C6"/>
<path d="M118.088 8.50059C115.154 10.3006 112.712 12.8269 110.987 15.8462C109.236 18.9513 108.317 22.473 108.324 26.0562C108.33 29.6395 109.261 33.1577 111.023 36.2563C112.786 39.2969 115.272 41.833 118.252 43.6287C121.286 45.4706 124.759 46.4243 128.288 46.3851H133.686C137.204 46.4205 140.664 45.4669 143.686 43.6287C146.67 41.8274 149.162 39.2886 150.933 36.246C152.704 33.1511 153.642 29.633 153.651 26.0484C153.661 22.4639 152.742 18.9405 150.988 15.8359C149.263 12.8165 146.82 10.2901 143.886 8.49029C140.878 6.65038 137.447 5.6547 133.94 5.60401V0.50766C138.329 0.547892 142.626 1.78722 146.387 4.09695C150.058 6.35389 153.116 9.51535 155.281 13.2918C157.471 17.1728 158.621 21.5748 158.615 26.0542C158.608 30.5336 157.446 34.9321 155.245 38.8065C153.041 42.6119 149.931 45.7873 146.205 48.0385C142.424 50.3449 138.094 51.5419 133.69 51.4979H128.292C123.889 51.5419 119.558 50.3449 115.777 48.0385C112.048 45.7846 108.934 42.6101 106.72 38.8065C104.51 34.9357 103.341 30.5372 103.332 26.0567C103.322 21.5761 104.472 17.1725 106.665 13.2918C108.834 9.51145 111.899 6.34935 115.579 4.09695C119.335 1.79224 123.625 0.553159 128.006 0.50766V5.61431C124.511 5.6685 121.093 6.66416 118.096 8.50059" fill="#A3D1C6"/>
<path d="M163.071 46.3933H199.266C201.559 46.3577 203.746 45.4025 205.355 43.734C206.964 42.0655 207.866 39.8176 207.866 37.4758C207.866 35.1339 206.964 32.886 205.355 31.2175C203.746 29.549 201.559 28.5938 199.266 28.5582H176.803C174.381 28.5825 171.999 27.9226 169.92 26.6512C167.869 25.4074 166.156 23.658 164.938 21.5631C163.716 19.43 163.072 17.0032 163.072 14.5319C163.072 12.0606 163.716 9.63379 164.938 7.50069C166.156 5.40576 167.869 3.65634 169.92 2.4126C171.999 1.14193 174.381 0.482675 176.803 0.507652H212.999V5.6143H176.803C175.646 5.59632 174.496 5.8137 173.421 6.25378C172.346 6.69386 171.368 7.34786 170.543 8.17772C169.718 9.00757 169.063 9.99672 168.616 11.0876C168.169 12.1785 167.938 13.3493 167.938 14.5319C167.938 15.7145 168.169 16.8853 168.616 17.9762C169.063 19.067 169.718 20.0562 170.543 20.8861C171.368 21.7159 172.346 22.3699 173.421 22.81C174.496 23.2501 175.646 23.4674 176.803 23.4495H199.268C201.691 23.4246 204.073 24.0838 206.152 25.3544C208.203 26.5983 209.916 28.3477 211.134 30.4425C212.356 32.5755 213 35.0023 213 37.4737C213 39.945 212.356 42.3719 211.134 44.5049C209.916 46.5998 208.203 48.3492 206.152 49.593C204.073 50.8636 201.691 51.5229 199.268 51.4979H163.071V46.3933Z" fill="#A3D1C6"/>
<path d="M232.152 12.424H238.168V1.41601H245.72V12.424H251.736V19.784H245.72V45H238.168V19.784H232.152V12.424Z" fill="#A3D1C6"/>
<path d="M269.198 12.424C271.075 12.424 272.739 12.7227 274.19 13.32C275.683 13.8747 276.942 14.664 277.966 15.688C279.033 16.712 279.843 17.9493 280.398 19.4C280.953 20.8507 281.23 22.4933 281.23 24.328V33.096C281.23 34.888 280.953 36.5307 280.398 38.024C279.843 39.4747 279.033 40.7333 277.966 41.8C276.942 42.824 275.683 43.6133 274.19 44.168C272.739 44.7227 271.075 45 269.198 45H266.574C264.739 45 263.075 44.7227 261.582 44.168C260.089 43.6133 258.809 42.824 257.742 41.8C256.718 40.7333 255.929 39.4747 255.374 38.024C254.862 36.5307 254.606 34.888 254.606 33.096V24.328C254.606 22.4933 254.862 20.8507 255.374 19.4C255.929 17.9493 256.718 16.712 257.742 15.688C258.809 14.664 260.089 13.8747 261.582 13.32C263.075 12.7227 264.739 12.424 266.574 12.424H269.198ZM266.574 19.784C265.251 19.784 264.121 20.232 263.182 21.128C262.286 21.9813 261.838 23.112 261.838 24.52V32.84C261.838 34.248 262.286 35.4 263.182 36.296C264.121 37.192 265.251 37.64 266.574 37.64H269.198C270.563 37.64 271.673 37.192 272.526 36.296C273.422 35.4 273.87 34.248 273.87 32.84V24.52C273.87 23.112 273.422 21.9813 272.526 21.128C271.673 20.232 270.563 19.784 269.198 19.784H266.574Z" fill="#A3D1C6"/>
<path d="M310.195 18.248V25.224H286.259V18.248H310.195Z" fill="#A3D1C6"/>
<path d="M327.514 45C325.637 45 323.952 44.7227 322.458 44.168C321.008 43.6133 319.749 42.824 318.682 41.8C317.658 40.7333 316.869 39.4747 316.315 38.024C315.76 36.5307 315.483 34.888 315.483 33.096V24.328C315.483 22.4933 315.76 20.8507 316.315 19.4C316.869 17.9493 317.658 16.712 318.682 15.688C319.749 14.664 321.008 13.8747 322.458 13.32C323.952 12.7227 325.637 12.424 327.514 12.424H330.074C331.866 12.424 333.488 12.68 334.939 13.192V1.41601H342.107V45H327.514ZM334.939 37.64V24.52C334.939 23.112 334.469 21.9813 333.53 21.128C332.592 20.232 331.44 19.784 330.074 19.784H327.514C326.149 19.784 324.976 20.232 323.995 21.128C323.056 21.9813 322.586 23.112 322.586 24.52V32.84C322.586 34.248 323.056 35.4 323.995 36.296C324.976 37.192 326.149 37.64 327.514 37.64H334.939Z" fill="#A3D1C6"/>
<path d="M360.448 12.424C362.325 12.424 363.989 12.7227 365.44 13.32C366.933 13.8747 368.192 14.664 369.216 15.688C370.283 16.712 371.093 17.9493 371.648 19.4C372.203 20.8507 372.48 22.4933 372.48 24.328V33.096C372.48 34.888 372.203 36.5307 371.648 38.024C371.093 39.4747 370.283 40.7333 369.216 41.8C368.192 42.824 366.933 43.6133 365.44 44.168C363.989 44.7227 362.325 45 360.448 45H357.824C355.989 45 354.325 44.7227 352.832 44.168C351.339 43.6133 350.059 42.824 348.992 41.8C347.968 40.7333 347.179 39.4747 346.624 38.024C346.112 36.5307 345.856 34.888 345.856 33.096V24.328C345.856 22.4933 346.112 20.8507 346.624 19.4C347.179 17.9493 347.968 16.712 348.992 15.688C350.059 14.664 351.339 13.8747 352.832 13.32C354.325 12.7227 355.989 12.424 357.824 12.424H360.448ZM357.824 19.784C356.501 19.784 355.371 20.232 354.432 21.128C353.536 21.9813 353.088 23.112 353.088 24.52V32.84C353.088 34.248 353.536 35.4 354.432 36.296C355.371 37.192 356.501 37.64 357.824 37.64H360.448C361.813 37.64 362.923 37.192 363.776 36.296C364.672 35.4 365.12 34.248 365.12 32.84V24.52C365.12 23.112 364.672 21.9813 363.776 21.128C362.923 20.232 361.813 19.784 360.448 19.784H357.824Z" fill="#A3D1C6"/>
</svg>
